<?xml version="1.0" standalone="no"?>
<!DOCTYPE svg PUBLIC "-//W3C//DTD SVG 20010904//EN"
 "http://www.w3.org/TR/2001/REC-SVG-20010904/DTD/svg10.dtd">
<svg version="1.0" xmlns="http://www.w3.org/2000/svg"
 width="400.000000pt" height="400.000000pt" viewBox="0 0 400.000000 400.000000"
 preserveAspectRatio="xMidYMid meet">
<metadata>
Created by potrace 1.11, written by Peter Selinger 2001-2013
</metadata>
<g transform="translate(0.000000,400.000000) scale(0.100000,-0.100000)"
fill="#000000" stroke="none">
<path d="M2779 3299 c-123 -17 -256 -86 -356 -187 -66 -67 -99 -114 -151 -218
l-41 -81 -57 -7 c-32 -4 -78 -16 -102 -26 -25 -11 -46 -19 -47 -18 -1 2 -17
32 -36 68 -40 78 -149 191 -231 239 -194 113 -376 140 -658 96 -141 -22 -291
-106 -420 -237 -106 -106 -152 -189 -131 -235 l12 -26 18 29 c24 39 125 131
194 177 115 77 208 110 391 142 125 21 200 19 297 -9 169 -49 246 -89 353
-182 54 -47 110 -90 123 -95 l25 -9 -26 -44 c-14 -25 -26 -55 -26 -67 0 -32
90 -119 124 -119 31 0 32 5 6 65 -11 26 -20 53 -20 61 0 15 57 47 103 58 l29
7 -8 -78 c-4 -43 -8 -87 -10 -98 -1 -11 -3 -43 -3 -71 -1 -49 -3 -54 -45 -85
-90 -69 -161 -193 -136 -239 15 -27 57 -53 75 -47 13 5 13 11 -1 42 -19 47
-13 64 46 119 52 49 65 54 73 32 9 -23 20 -214 13 -239 -3 -15 -27 -37 -65
-60 -80 -50 -121 -98 -121 -142 0 -19 3 -35 6 -35 4 0 44 26 90 57 46 31 86
55 88 52 6 -6 15 -128 21 -298 7 -168 16 -227 45 -273 26 -42 25 -49 -6 -95
l-25 -38 30 -12 c17 -7 70 -20 118 -28 98 -17 249 -61 257 -74 9 -14 -29 -17
-229 -20 -105 -1 -228 -4 -275 -6 -47 -3 -89 -2 -95 2 -5 5 -21 23 -34 42
l-24 34 47 -7 c68 -11 157 -9 169 3 15 15 -1 60 -31 88 -41 38 -235 128 -342
158 -52 15 -117 34 -145 42 -69 20 -392 11 -485 -13 -119 -31 -270 -123 -304
-186 -19 -34 -19 -34 8 -76 14 -23 26 -44 26 -46 0 -3 -27 -33 -60 -68 -52
-55 -76 -93 -52 -86 4 2 8 -1 10 -7 2 -5 -22 -14 -53 -19 -65 -11 -70 -7 -79
59 -18 114 -51 263 -132 586 -85 343 -130 473 -234 679 -17 34 -29 68 -26 75
3 8 38 23 78 35 40 12 92 33 116 46 23 14 42 21 43 17 4 -45 110 -554 163
-788 25 -110 53 -249 61 -310 23 -153 35 -214 45 -220 15 -9 38 47 51 121 11
62 8 268 -5 344 -3 14 -12 75 -21 135 -9 61 -26 151 -37 200 -10 50 -26 126
-35 170 l-15 80 37 32 c56 48 230 132 310 148 39 8 125 15 191 15 101 0 137
-4 209 -25 112 -33 138 -47 206 -112 54 -51 58 -53 68 -34 14 25 14 74 0 103
-27 59 -174 133 -333 167 -101 21 -242 26 -327 11 -93 -16 -211 -77 -302 -155
-43 -37 -79 -66 -81 -64 -2 2 -16 45 -30 94 -64 213 -120 375 -129 372 -15 -5
-35 -65 -36 -105 -1 -22 -7 -35 -18 -39 -63 -21 -223 -106 -250 -131 -30 -30
-31 -32 -27 -104 2 -40 9 -98 15 -128 12 -60 16 -73 82 -260 26 -73 69 -232
102 -380 69 -312 105 -452 145 -561 l31 -82 -32 -33 c-33 -34 -32 -38 19 -49
18 -4 46 -18 63 -33 l31 -26 17 21 c15 19 30 21 196 27 99 3 189 8 200 10 53
10 164 21 325 31 47 3 99 7 115 10 108 17 259 32 390 40 55 3 114 8 130 10 78
11 397 20 645 18 257 -2 281 -4 357 -26 76 -22 85 -23 113 -9 27 13 45 13 162
-2 72 -9 138 -22 145 -28 12 -9 13 -34 8 -127 -7 -110 -6 -117 14 -135 19 -18
22 -18 46 -2 14 9 30 29 36 43 17 45 57 271 84 478 32 241 34 255 45 325 5 30
12 73 14 95 3 22 15 101 26 175 73 487 70 464 64 666 l-6 191 25 39 c38 57 43
88 19 112 -21 21 -53 29 -227 57 -131 21 -143 31 -126 112 l13 59 -38 64 c-71
120 -185 211 -329 260 -48 17 -99 24 -240 34 -16 1 -55 -1 -86 -5z m206 -178
c87 -31 298 -137 328 -165 l27 -25 -25 -53 c-41 -89 -58 -175 -59 -288 -1 -94
11 -320 19 -361 2 -8 6 -55 10 -105 4 -49 9 -102 12 -119 2 -16 7 -160 10
-320 4 -224 9 -298 20 -325 19 -45 17 -52 87 235 39 159 58 261 63 329 8 136
8 390 -1 569 -4 81 -5 147 -3 147 2 0 31 -11 65 -25 34 -14 85 -30 113 -36 48
-10 50 -12 36 -32 -23 -36 -36 -88 -41 -167 -14 -204 -18 -254 -21 -269 -1 -9
-6 -38 -9 -66 -4 -27 -22 -133 -41 -235 -31 -168 -45 -263 -60 -390 -22 -203
-27 -246 -31 -252 -4 -6 -197 83 -213 98 -3 2 6 15 18 28 l22 23 -63 52 c-135
112 -286 162 -493 164 -71 1 -152 0 -180 -2 -46 -4 -206 -53 -230 -70 -5 -4
-31 -20 -57 -35 l-48 -27 0 240 0 240 33 -18 c17 -10 39 -17 47 -16 8 1 21 3
28 3 7 1 21 16 31 33 29 47 13 82 -52 113 -29 13 -59 26 -68 29 -21 7 -26 36
-28 154 -2 75 1 94 11 90 106 -42 115 -45 131 -36 12 7 17 23 17 51 0 35 -6
47 -44 84 -37 38 -49 44 -84 44 -44 0 -42 -3 -56 73 -3 12 -7 49 -11 82 -3 33
-8 70 -11 83 -3 14 1 25 11 28 24 10 108 -38 123 -69 19 -39 58 -63 77 -47 8
7 15 18 15 24 0 26 96 59 232 81 66 10 338 -39 432 -79 21 -9 46 -16 55 -16
34 0 95 92 89 132 -8 54 -197 117 -366 122 -158 5 -290 -25 -397 -89 l-57 -35
-59 51 -59 51 22 41 c68 134 221 266 344 296 68 17 271 6 339 -18z m-410
-1735 c11 -3 33 -5 49 -5 48 -1 24 -10 -60 -22 -43 -6 -115 -19 -159 -29 -126
-29 -135 -30 -135 -15 0 27 78 67 150 78 26 4 121 -1 155 -7z m-1136 -133 c20
-8 8 -11 -65 -17 -117 -8 -233 -37 -357 -87 -78 -31 -102 -37 -108 -27 -35 54
21 107 141 135 64 14 350 12 389 -4z m1486 -58 c17 -3 80 -19 142 -35 62 -17
122 -30 134 -30 31 0 199 -82 232 -113 62 -59 26 -69 -143 -42 -141 23 -189
40 -255 90 -48 35 -89 54 -202 91 -79 25 -143 48 -143 51 0 7 192 -3 235 -12z
m-1300 -126 c143 -28 153 -34 73 -48 -101 -17 -204 -15 -212 5 -6 15 -25 16
-186 10 -98 -3 -185 -8 -192 -10 -7 -3 -35 -7 -63 -10 -63 -7 -45 6 47 35 165
51 336 57 533 18z"/>
<path d="M2670 2300 c-124 -21 -292 -126 -336 -212 -14 -27 -14 -28 3 -19 191
99 232 111 346 107 105 -5 176 -24 262 -71 33 -18 67 -30 75 -28 20 7 59 43
71 66 24 44 -66 114 -188 146 -55 15 -175 20 -233 11z"/>
<path d="M2718 1860 c-79 -10 -218 -66 -218 -89 0 -3 57 -5 127 -4 125 2 219
-10 335 -40 56 -15 130 -9 151 12 10 10 -71 90 -109 107 -40 17 -199 25 -286
14z"/>
<path d="M1114 2779 c-115 -11 -300 -79 -385 -142 -50 -36 -41 -46 19 -22 105
42 213 58 353 51 214 -10 305 -34 459 -120 183 -103 211 -113 228 -78 40 77
-92 198 -303 277 -60 23 -113 31 -260 38 -22 1 -72 -1 -111 -4z"/>
<path d="M1225 2099 c-166 -27 -358 -137 -410 -233 -18 -33 -18 -35 1 -63 18
-27 19 -27 22 -5 6 41 83 87 232 138 50 17 79 22 196 31 93 7 211 -14 296 -51
48 -21 57 -22 83 -11 31 13 85 60 85 73 0 77 -314 153 -505 121z"/>
<path d="M1388 1675 c-2 -2 -32 -6 -67 -9 -119 -13 -365 -68 -375 -85 -3 -4 8
-8 24 -9 16 -1 40 -6 52 -11 13 -5 52 -7 88 -5 292 16 357 15 412 -6 66 -25
85 -25 98 0 14 26 16 88 3 101 -6 6 -46 13 -89 15 -44 3 -94 6 -111 8 -18 2
-34 2 -35 1z"/>
</g>
</svg>
