<svg xmlns="http://www.w3.org/2000/svg" viewBox="0 0 600 600"></svg>


<?xml version="1.0" encoding="UTF-8" standalone="no"?>
<!-- Created with Inkscape (http://www.inkscape.org/) -->

<svg
   xmlns:dc="http://purl.org/dc/elements/1.1/"
   xmlns:cc="http://creativecommons.org/ns#"
   xmlns:rdf="http://www.w3.org/1999/02/22-rdf-syntax-ns#"
   xmlns:svg="http://www.w3.org/2000/svg"
   xmlns="http://www.w3.org/2000/svg"
   xmlns:inkscape="http://www.inkscape.org/namespaces/inkscape"
   version="1.1"
   width="600"
   height="600"
   id="svg4332">
  <defs
     id="defs4334" />
  <metadata
     id="metadata4337">
    <rdf:RDF>
      <cc:Work
         rdf:about="">
        <dc:format>image/svg+xml</dc:format>
        <dc:type
           rdf:resource="http://purl.org/dc/dcmitype/StillImage" />
        <dc:title />
      </cc:Work>
    </rdf:RDF>
  </metadata>
  <g
    transform="translate(-142.0055,126.78621)"
    id="layer1">
    <circle cx="300" cy="300" r="300" fill="#ccc2c0"/>
    <path d="M300 60A500 500 0 0 0 540 300 500 500 0 0 0 300 540 500 500 0 0 0 60 300 500 500 0 0 0 300 60m0 90A300 300 0 0 1 150 300 300 300 0 0 1 300 450 300 300 0 0 1 450 300 300 300 0 0 1 300 150" fill="#130c0e"/>
  </g>
</svg>
